<svg id="Capa_1" data-name="Capa 1" xmlns="http://www.w3.org/2000/svg" viewBox="0 0 16.3 9.97"><defs><style>.cls-1{fill:#cdcdcd;}</style></defs><title>passHide</title><path class="cls-1" d="M8.15,1.23A8.8,8.8,0,0,0,0,6.21a8.8,8.8,0,0,0,8.15,5,8.8,8.8,0,0,0,8.15-5A8.8,8.8,0,0,0,8.15,1.23Zm0,8.3a3.53,3.53,0,0,1-3.7-3.32,3.53,3.53,0,0,1,3.7-3.32,3.53,3.53,0,0,1,3.7,3.32A3.53,3.53,0,0,1,8.15,9.53Zm0-5.31a2.11,2.11,0,0,0-2.22,2,2.11,2.11,0,0,0,2.22,2,2.11,2.11,0,0,0,2.22-2,2.11,2.11,0,0,0-2.22-2Z" transform="translate(0 -1.22)"/></svg>