<svg xmlns="http://www.w3.org/2000/svg" width="16.303" height="12.85" viewBox="0 0 16.303 12.85"><defs><style>.a{fill:#cdcdcd;}.b{fill:none;stroke:#bfbfbf;stroke-linecap:round;}</style></defs><g transform="translate(-277.697 0.707)"><g transform="translate(276.697 -4.48)"><path class="a" d="M21.151-39A8.8,8.8,0,0,0,13-34.019a8.8,8.8,0,0,0,8.151,4.981A8.8,8.8,0,0,0,29.3-34.019,8.8,8.8,0,0,0,21.151-39Zm0,8.3a3.53,3.53,0,0,1-3.705-3.321,3.53,3.53,0,0,1,3.705-3.321,3.53,3.53,0,0,1,3.705,3.321A3.53,3.53,0,0,1,21.151-30.7Zm0-5.314a2.114,2.114,0,0,0-2.223,1.993,2.114,2.114,0,0,0,2.223,1.993,2.114,2.114,0,0,0,2.223-1.993A2.114,2.114,0,0,0,21.151-36.011Z" transform="translate(-12 44)"/></g><path class="b" d="M-20853.766-22093.084l12.053-11.436" transform="translate(21133.697 22104.52)"/></g></svg>